<mxfile host="app.diagrams.net" agent="Mozilla/5.0 (Windows NT 10.0; Win64; x64) AppleWebKit/537.36 (KHTML, like Gecko) Chrome/129.0.0.0 Safari/537.36" version="24.8.2">
  <diagram id="C5RBs43oDa-KdzZeNtuy" name="Page-1">
    <mxGraphModel dx="1434" dy="1949" grid="1" gridSize="10" guides="1" tooltips="1" connect="1" arrows="1" fold="1" page="1" pageScale="1" pageWidth="827" pageHeight="1169" math="0" shadow="0">
      <root>
        <mxCell id="WIyWlLk6GJQsqaUBKTNV-0" />
        <mxCell id="WIyWlLk6GJQsqaUBKTNV-1" parent="WIyWlLk6GJQsqaUBKTNV-0" />
        <mxCell id="LVJ5BjBZ1jdqbOxhy8B7-4" style="edgeStyle=orthogonalEdgeStyle;rounded=0;orthogonalLoop=1;jettySize=auto;html=1;exitX=0.5;exitY=1;exitDx=0;exitDy=0;" edge="1" parent="WIyWlLk6GJQsqaUBKTNV-1" source="LVJ5BjBZ1jdqbOxhy8B7-0" target="LVJ5BjBZ1jdqbOxhy8B7-1">
          <mxGeometry relative="1" as="geometry" />
        </mxCell>
        <mxCell id="LVJ5BjBZ1jdqbOxhy8B7-0" value="start" style="ellipse;whiteSpace=wrap;html=1;" vertex="1" parent="WIyWlLk6GJQsqaUBKTNV-1">
          <mxGeometry x="310" y="-740" width="130" height="50" as="geometry" />
        </mxCell>
        <mxCell id="LVJ5BjBZ1jdqbOxhy8B7-5" style="edgeStyle=orthogonalEdgeStyle;rounded=0;orthogonalLoop=1;jettySize=auto;html=1;exitX=0.5;exitY=1;exitDx=0;exitDy=0;" edge="1" parent="WIyWlLk6GJQsqaUBKTNV-1" source="LVJ5BjBZ1jdqbOxhy8B7-1" target="LVJ5BjBZ1jdqbOxhy8B7-2">
          <mxGeometry relative="1" as="geometry" />
        </mxCell>
        <mxCell id="LVJ5BjBZ1jdqbOxhy8B7-1" value="output background image and heading" style="rounded=1;whiteSpace=wrap;html=1;" vertex="1" parent="WIyWlLk6GJQsqaUBKTNV-1">
          <mxGeometry x="315" y="-644" width="120" height="60" as="geometry" />
        </mxCell>
        <mxCell id="LVJ5BjBZ1jdqbOxhy8B7-2" value="output buttons, one_player, two_player, and quit" style="rounded=1;whiteSpace=wrap;html=1;" vertex="1" parent="WIyWlLk6GJQsqaUBKTNV-1">
          <mxGeometry x="315" y="-550" width="120" height="50" as="geometry" />
        </mxCell>
        <mxCell id="LVJ5BjBZ1jdqbOxhy8B7-8" style="edgeStyle=orthogonalEdgeStyle;rounded=0;orthogonalLoop=1;jettySize=auto;html=1;exitX=1;exitY=0.5;exitDx=0;exitDy=0;" edge="1" parent="WIyWlLk6GJQsqaUBKTNV-1" source="LVJ5BjBZ1jdqbOxhy8B7-3" target="LVJ5BjBZ1jdqbOxhy8B7-7">
          <mxGeometry relative="1" as="geometry" />
        </mxCell>
        <mxCell id="LVJ5BjBZ1jdqbOxhy8B7-11" style="edgeStyle=orthogonalEdgeStyle;rounded=0;orthogonalLoop=1;jettySize=auto;html=1;exitX=0.5;exitY=1;exitDx=0;exitDy=0;entryX=0.5;entryY=0;entryDx=0;entryDy=0;" edge="1" parent="WIyWlLk6GJQsqaUBKTNV-1" source="LVJ5BjBZ1jdqbOxhy8B7-3" target="LVJ5BjBZ1jdqbOxhy8B7-10">
          <mxGeometry relative="1" as="geometry" />
        </mxCell>
        <mxCell id="LVJ5BjBZ1jdqbOxhy8B7-3" value="is button one_player pressed?" style="rhombus;whiteSpace=wrap;html=1;" vertex="1" parent="WIyWlLk6GJQsqaUBKTNV-1">
          <mxGeometry x="322.5" y="-460" width="105" height="100" as="geometry" />
        </mxCell>
        <mxCell id="LVJ5BjBZ1jdqbOxhy8B7-6" style="edgeStyle=orthogonalEdgeStyle;rounded=0;orthogonalLoop=1;jettySize=auto;html=1;exitX=0.5;exitY=1;exitDx=0;exitDy=0;entryX=0.5;entryY=0.07;entryDx=0;entryDy=0;entryPerimeter=0;" edge="1" parent="WIyWlLk6GJQsqaUBKTNV-1" source="LVJ5BjBZ1jdqbOxhy8B7-2" target="LVJ5BjBZ1jdqbOxhy8B7-3">
          <mxGeometry relative="1" as="geometry" />
        </mxCell>
        <mxCell id="LVJ5BjBZ1jdqbOxhy8B7-26" style="edgeStyle=orthogonalEdgeStyle;rounded=0;orthogonalLoop=1;jettySize=auto;html=1;exitX=1;exitY=0.5;exitDx=0;exitDy=0;entryX=1;entryY=0.5;entryDx=0;entryDy=0;" edge="1" parent="WIyWlLk6GJQsqaUBKTNV-1" source="LVJ5BjBZ1jdqbOxhy8B7-7" target="LVJ5BjBZ1jdqbOxhy8B7-23">
          <mxGeometry relative="1" as="geometry" />
        </mxCell>
        <mxCell id="LVJ5BjBZ1jdqbOxhy8B7-7" value="run sub-routine one_player()" style="shape=process;whiteSpace=wrap;html=1;backgroundOutline=1;" vertex="1" parent="WIyWlLk6GJQsqaUBKTNV-1">
          <mxGeometry x="490" y="-440" width="120" height="60" as="geometry" />
        </mxCell>
        <mxCell id="LVJ5BjBZ1jdqbOxhy8B7-9" value="yes" style="text;html=1;align=center;verticalAlign=middle;whiteSpace=wrap;rounded=0;" vertex="1" parent="WIyWlLk6GJQsqaUBKTNV-1">
          <mxGeometry x="427.5" y="-430" width="60" height="30" as="geometry" />
        </mxCell>
        <mxCell id="LVJ5BjBZ1jdqbOxhy8B7-14" style="edgeStyle=orthogonalEdgeStyle;rounded=0;orthogonalLoop=1;jettySize=auto;html=1;exitX=1;exitY=0.5;exitDx=0;exitDy=0;" edge="1" parent="WIyWlLk6GJQsqaUBKTNV-1" source="LVJ5BjBZ1jdqbOxhy8B7-10" target="LVJ5BjBZ1jdqbOxhy8B7-13">
          <mxGeometry relative="1" as="geometry" />
        </mxCell>
        <mxCell id="LVJ5BjBZ1jdqbOxhy8B7-18" style="edgeStyle=orthogonalEdgeStyle;rounded=0;orthogonalLoop=1;jettySize=auto;html=1;exitX=0.5;exitY=1;exitDx=0;exitDy=0;entryX=0.5;entryY=0;entryDx=0;entryDy=0;" edge="1" parent="WIyWlLk6GJQsqaUBKTNV-1" source="LVJ5BjBZ1jdqbOxhy8B7-10" target="LVJ5BjBZ1jdqbOxhy8B7-17">
          <mxGeometry relative="1" as="geometry" />
        </mxCell>
        <mxCell id="LVJ5BjBZ1jdqbOxhy8B7-10" value="is button two_player pressed?" style="rhombus;whiteSpace=wrap;html=1;" vertex="1" parent="WIyWlLk6GJQsqaUBKTNV-1">
          <mxGeometry x="322.5" y="-320" width="105" height="100" as="geometry" />
        </mxCell>
        <mxCell id="LVJ5BjBZ1jdqbOxhy8B7-12" value="no" style="text;html=1;align=center;verticalAlign=middle;whiteSpace=wrap;rounded=0;" vertex="1" parent="WIyWlLk6GJQsqaUBKTNV-1">
          <mxGeometry x="360" y="-360" width="60" height="30" as="geometry" />
        </mxCell>
        <mxCell id="LVJ5BjBZ1jdqbOxhy8B7-27" style="edgeStyle=orthogonalEdgeStyle;rounded=0;orthogonalLoop=1;jettySize=auto;html=1;exitX=1;exitY=0.5;exitDx=0;exitDy=0;" edge="1" parent="WIyWlLk6GJQsqaUBKTNV-1" source="LVJ5BjBZ1jdqbOxhy8B7-13">
          <mxGeometry relative="1" as="geometry">
            <mxPoint x="630" y="-200" as="targetPoint" />
          </mxGeometry>
        </mxCell>
        <mxCell id="LVJ5BjBZ1jdqbOxhy8B7-13" value="run sub-routine two_player()" style="shape=process;whiteSpace=wrap;html=1;backgroundOutline=1;" vertex="1" parent="WIyWlLk6GJQsqaUBKTNV-1">
          <mxGeometry x="487.5" y="-300" width="120" height="60" as="geometry" />
        </mxCell>
        <mxCell id="LVJ5BjBZ1jdqbOxhy8B7-15" value="yes" style="text;html=1;align=center;verticalAlign=middle;whiteSpace=wrap;rounded=0;" vertex="1" parent="WIyWlLk6GJQsqaUBKTNV-1">
          <mxGeometry x="427.5" y="-290" width="60" height="30" as="geometry" />
        </mxCell>
        <mxCell id="LVJ5BjBZ1jdqbOxhy8B7-21" style="edgeStyle=orthogonalEdgeStyle;rounded=0;orthogonalLoop=1;jettySize=auto;html=1;" edge="1" parent="WIyWlLk6GJQsqaUBKTNV-1" source="LVJ5BjBZ1jdqbOxhy8B7-17" target="LVJ5BjBZ1jdqbOxhy8B7-20">
          <mxGeometry relative="1" as="geometry" />
        </mxCell>
        <mxCell id="LVJ5BjBZ1jdqbOxhy8B7-24" style="edgeStyle=orthogonalEdgeStyle;rounded=0;orthogonalLoop=1;jettySize=auto;html=1;exitX=0.5;exitY=1;exitDx=0;exitDy=0;" edge="1" parent="WIyWlLk6GJQsqaUBKTNV-1" source="LVJ5BjBZ1jdqbOxhy8B7-17" target="LVJ5BjBZ1jdqbOxhy8B7-23">
          <mxGeometry relative="1" as="geometry" />
        </mxCell>
        <mxCell id="LVJ5BjBZ1jdqbOxhy8B7-17" value="is button quit pressed?" style="rhombus;whiteSpace=wrap;html=1;" vertex="1" parent="WIyWlLk6GJQsqaUBKTNV-1">
          <mxGeometry x="322.5" y="-180" width="105" height="100" as="geometry" />
        </mxCell>
        <mxCell id="LVJ5BjBZ1jdqbOxhy8B7-19" value="no" style="text;html=1;align=center;verticalAlign=middle;whiteSpace=wrap;rounded=0;" vertex="1" parent="WIyWlLk6GJQsqaUBKTNV-1">
          <mxGeometry x="360" y="-220" width="60" height="30" as="geometry" />
        </mxCell>
        <mxCell id="LVJ5BjBZ1jdqbOxhy8B7-28" style="edgeStyle=orthogonalEdgeStyle;rounded=0;orthogonalLoop=1;jettySize=auto;html=1;exitX=1;exitY=0.5;exitDx=0;exitDy=0;" edge="1" parent="WIyWlLk6GJQsqaUBKTNV-1" source="LVJ5BjBZ1jdqbOxhy8B7-20">
          <mxGeometry relative="1" as="geometry">
            <mxPoint x="630" y="-70" as="targetPoint" />
          </mxGeometry>
        </mxCell>
        <mxCell id="LVJ5BjBZ1jdqbOxhy8B7-20" value="run sub-routine quit()" style="shape=process;whiteSpace=wrap;html=1;backgroundOutline=1;" vertex="1" parent="WIyWlLk6GJQsqaUBKTNV-1">
          <mxGeometry x="487.5" y="-160" width="120" height="60" as="geometry" />
        </mxCell>
        <mxCell id="LVJ5BjBZ1jdqbOxhy8B7-22" value="yes" style="text;html=1;align=center;verticalAlign=middle;whiteSpace=wrap;rounded=0;" vertex="1" parent="WIyWlLk6GJQsqaUBKTNV-1">
          <mxGeometry x="427.5" y="-150" width="60" height="30" as="geometry" />
        </mxCell>
        <mxCell id="LVJ5BjBZ1jdqbOxhy8B7-23" value="end" style="ellipse;whiteSpace=wrap;html=1;" vertex="1" parent="WIyWlLk6GJQsqaUBKTNV-1">
          <mxGeometry x="312.5" y="-30" width="125" height="50" as="geometry" />
        </mxCell>
        <mxCell id="LVJ5BjBZ1jdqbOxhy8B7-25" value="no" style="text;html=1;align=center;verticalAlign=middle;whiteSpace=wrap;rounded=0;" vertex="1" parent="WIyWlLk6GJQsqaUBKTNV-1">
          <mxGeometry x="360" y="-70" width="60" height="30" as="geometry" />
        </mxCell>
      </root>
    </mxGraphModel>
  </diagram>
</mxfile>
